<?xml version="1.0" encoding="UTF-8"?><svg id="_Слой_2" xmlns="http://www.w3.org/2000/svg" width="151.3" height="32.01" viewBox="0 0 151.3 32.01"><defs><style>.cls-1,.cls-2{fill:#fff;stroke-width:0px;}.cls-2{fill-rule:evenodd;}</style></defs><g id="_Слой_2-2"><g id="_Слой_1-2"><g id="logo_breakdance"><path class="cls-1" d="M13.7,22.86H2.28c-1.25,0-2.28-1.05-2.28-2.29s1.03-2.28,2.28-2.29h4.58c1.25,0,2.27-1.06,2.27-2.29V2.29C9.13,1.06,10.16,0,11.41,0c1.25,0,2.28,1.05,2.28,2.29v6.46c0,1.22,1.08,2.28,2.28,2.29,1.25,0,2.28-1.05,2.28-2.29V2.29c0-1.23,1.03-2.28,2.28-2.29,1.25,0,2.28,1.05,2.28,2.29v27.43c0,1.23-1.03,2.29-2.28,2.29s-2.28-1.05-2.28-2.29v-2.29c0-2.52-2.05-4.57-4.57-4.57h.02Z"/><path class="cls-1" d="M13.18,31.21c1.8,0,3.26-1.46,3.26-3.26s-1.46-3.26-3.26-3.26-3.26,1.46-3.26,3.26,1.46,3.26,3.26,3.26Z"/><path class="cls-2" d="M42.59,14.44c-.79-.99-1.85-1.49-3.17-1.49-.78,0-1.46.19-2.05.56-.59.38-1.05.89-1.37,1.54v-7.86l-1.19.29c-1.23.29-2.05.53-2.47.72v.47l.02,15.36c1.32.5,2.72.75,4.2.75,2.22,0,3.99-.61,5.3-1.83,1.29-1.19,1.94-2.76,1.94-4.72,0-1.52-.4-2.79-1.21-3.79ZM39.26,20.99c-.55.57-1.3.86-2.26.86-.29,0-.62-.04-1-.11v-2.91l.02.05c0-.84.22-1.55.66-2.12.43-.56.94-.84,1.55-.84.56,0,1.01.25,1.35.75.33.5.5,1.14.5,1.94,0,1.01-.27,1.81-.82,2.39h0Z"/><path class="cls-1" d="M52.9,17.4c.64-1.66.94-3.14.89-4.45-.96,0-1.84.25-2.65.75-.79.48-1.38,1.18-1.76,2.1-.17-.95-.42-1.88-.75-2.8-.05.02-.31.08-.8.18-.41.09-.71.16-.89.2-.53.14-1.02.29-1.46.47.26,1.46.39,2.84.39,4.13v2.71c0,2.06.03,3.34.09,3.84,1.11.11,2.34.07,3.7-.11-.09-.77-.14-2.01-.14-3.73,0-1.45.32-2.48.96-3.09.64-.6,1.45-.67,2.42-.2Z"/><path class="cls-2" d="M60.87,21.92c.68,0,1.34-.1,1.96-.29.64-.21,1.13-.47,1.48-.77.08.56,0,1.4-.23,2.53-.35.36-.93.69-1.73.97-.76.3-1.6.45-2.51.45-1.67,0-3.04-.52-4.09-1.56-1.05-1.02-1.58-2.42-1.58-4.18s.59-3.25,1.76-4.4c1.16-1.14,2.59-1.72,4.31-1.72,1.39,0,2.46.4,3.22,1.2.76.78,1.14,1.84,1.14,3.18,0,.84-.13,1.52-.39,2.03l-6.6.09c.26,1.64,1.34,2.46,3.24,2.46h.02ZM59.79,15.62c-.53,0-1,.21-1.39.63-.38.42-.63.98-.75,1.67l3.47-.14c.03-.33.05-.56.05-.7,0-.98-.46-1.47-1.37-1.47h-.01Z"/><path class="cls-2" d="M73.4,24.76c1.17-.08,2.19-.32,3.06-.75-.37-.89-.55-2.24-.55-4.04v-2.35c0-3.12-1.54-4.68-4.61-4.68-.75,0-1.43.08-2.05.23-1.1.26-2.02.66-2.79,1.22.02.9.13,1.71.34,2.42,1.02-.66,2.14-.99,3.36-.99,1.48,0,2.21.71,2.21,2.12v.05c-.49-.03-.86-.05-1.12-.05-1.74,0-3.1.35-4.11,1.04-.99.69-1.48,1.63-1.48,2.82,0,.9.29,1.63.87,2.19.58.54,1.33.81,2.26.81.78,0,1.49-.2,2.15-.59.67-.41,1.19-.96,1.55-1.67.2.89.5,1.63.91,2.21h0ZM71.43,21.44c-.38.41-.83.61-1.35.61-.33,0-.62-.09-.84-.27-.23-.2-.34-.44-.34-.75,0-.93.85-1.4,2.56-1.4.37,0,.63,0,.8.02-.15.77-.43,1.36-.82,1.78h-.01Z"/><path class="cls-1" d="M89.79,13.27l-3.49,4.79,4.36,6.23c-1.46.24-2.88.35-4.27.34l-2.97-5.1-1.1.23v.95c0,1.72.05,2.96.14,3.73-1.34.18-2.57.22-3.7.11-.06-.5-.09-1.78-.09-3.84v-12.49c.43-.2,1.26-.44,2.49-.72.24-.06.63-.16,1.16-.29v10.12l1.21-.27,2.53-3.91c1.2.09,2.44.14,3.72.14v-.02Z"/><path class="cls-2" d="M99.76,24.76c1.17-.08,2.19-.32,3.06-.75-.36-.89-.55-2.24-.55-4.04V7.19s-.14.05-.3.09c-.14.03-.28.07-.43.11l-.46.09c-1.23.29-2.05.53-2.47.72v4.77c-.12-.02-.3-.02-.55-.02-2.21,0-3.96.6-5.27,1.81-1.31,1.22-1.96,2.8-1.96,4.74,0,1.54.4,2.81,1.21,3.82.79.99,1.86,1.49,3.2,1.49.84,0,1.57-.2,2.19-.59s1.1-.93,1.41-1.63c.2.84.5,1.57.91,2.17h.01ZM97.98,20.99c-.43.56-.95.84-1.58.84-.56,0-1.01-.25-1.35-.75-.33-.5-.5-1.14-.5-1.94,0-1.04.27-1.86.82-2.46.55-.6,1.3-.9,2.26-.9.27,0,.6.04.98.11v2.98c0,.86-.21,1.57-.64,2.12h0Z"/><path class="cls-2" d="M115.28,24.02c-.87.42-1.89.67-3.06.75-.41-.59-.72-1.33-.91-2.21-.37.71-.88,1.26-1.55,1.67-.65.39-1.37.59-2.15.59-.93,0-1.68-.27-2.26-.81-.58-.56-.87-1.29-.87-2.19,0-1.19.5-2.13,1.48-2.82,1.01-.69,2.38-1.04,4.11-1.04.26,0,.63.02,1.12.05v-.05c0-1.42-.74-2.12-2.21-2.12-1.22,0-2.34.33-3.36.99-.21-.71-.33-1.51-.34-2.42.76-.56,1.69-.96,2.78-1.22.62-.15,1.31-.23,2.06-.23,3.08,0,4.61,1.56,4.61,4.68v2.35c0,1.81.18,3.15.55,4.04h0ZM108.91,22.05c.52,0,.97-.2,1.35-.61.4-.42.67-1.02.82-1.78-.17-.02-.43-.02-.8-.02-1.7,0-2.56.47-2.56,1.4,0,.3.11.55.34.75.23.18.51.27.85.27h0Z"/><path class="cls-1" d="M128.9,24.33c-.12-.41-.18-1.62-.18-3.64v-3.43c0-1.37-.33-2.43-.98-3.18-.64-.75-1.54-1.13-2.69-1.13-.9,0-1.71.23-2.44.7-.72.47-1.23,1.13-1.55,1.99-.17-.95-.41-1.83-.73-2.64-.05.02-.31.08-.8.18-.52.12-.81.19-.87.2-.52.12-1.01.28-1.48.47.26,1.46.39,2.84.39,4.13v2.71c0,2.06.03,3.34.09,3.84,1.11.11,2.34.07,3.7-.11-.09-.77-.14-2.01-.14-3.73v-1.56c0-.9.24-1.63.71-2.19.46-.56,1.02-.84,1.69-.84.46,0,.81.15,1.07.45.26.3.39.72.39,1.27v2.87c0,2.24.03,3.55.09,3.93,1.23.03,2.48-.07,3.74-.29h0Z"/><path class="cls-1" d="M136.02,24.81c-1.63,0-2.95-.53-3.97-1.58-1.02-1.02-1.53-2.39-1.53-4.11,0-1.84.6-3.33,1.8-4.47,1.19-1.13,2.68-1.69,4.48-1.69,1.31,0,2.38.25,3.22.75.03,1.02-.19,2.12-.66,3.28-.68-.71-1.51-1.06-2.49-1.06-.81,0-1.45.27-1.94.81-.49.53-.73,1.22-.73,2.08s.27,1.61.8,2.12c.55.5,1.26.75,2.15.75.55,0,1.1-.1,1.64-.29.56-.2.99-.42,1.28-.68.08.65,0,1.59-.25,2.82-.93.86-2.19,1.29-3.79,1.29v-.02Z"/><path class="cls-2" d="M149.51,21.62c-.62.2-1.28.29-1.96.29-1.9,0-2.98-.82-3.24-2.46l6.6-.09c.26-.51.39-1.19.39-2.03,0-1.34-.38-2.4-1.14-3.18-.76-.8-1.83-1.2-3.22-1.2-1.72,0-3.16.57-4.32,1.72-1.17,1.16-1.76,2.63-1.76,4.4s.52,3.15,1.57,4.18c1.05,1.04,2.41,1.56,4.09,1.56.91,0,1.75-.15,2.51-.45.81-.29,1.38-.61,1.74-.97.23-1.13.3-1.97.23-2.53-.35.3-.85.56-1.48.77h0ZM145.09,16.25c.4-.42.86-.63,1.39-.63.91,0,1.37.49,1.37,1.47,0,.14-.02.37-.05.7l-3.47.14c.12-.69.37-1.25.75-1.67h.01Z"/></g></g></g></svg>