<?xml version="1.0" encoding="UTF-8"?><svg id="_Слой_2" xmlns="http://www.w3.org/2000/svg" width="87" height="25.02" viewBox="0 0 87 25.02"><defs><style>.cls-1{fill:#fff;stroke-width:0px;}</style></defs><g id="_Слой_2-2"><g id="_Слой_1-2"><g id="logo_souidx"><path class="cls-1" d="M42.65,13.55v-7.82h3.36v13.95h-3.25v-2.03c-1.05,1.57-2.49,2.35-4.32,2.35-1.48,0-2.65-.43-3.52-1.3-.85-.88-1.28-2.13-1.28-3.73V5.73h3.36v8.68c0,1.77.86,2.65,2.59,2.65.85,0,1.57-.31,2.16-.92.6-.63.91-1.5.91-2.6h-.01ZM52.07,3.92h-3.31V.73h3.31v3.19ZM52.09,19.69h-3.36V5.73h3.36v13.95h0ZM64.61,7.55V.43h3.36v19.26h-3.25v-1.95c-1.01,1.51-2.46,2.27-4.35,2.27s-3.4-.67-4.51-2c-1.12-1.33-1.68-3.1-1.68-5.3s.56-4.01,1.68-5.33c1.08-1.32,2.59-1.97,4.51-1.97s3.26.71,4.24,2.14ZM57.63,12.82c0,1.44.31,2.53.93,3.27.62.74,1.48,1.11,2.59,1.11s1.97-.39,2.61-1.16c.62-.78.93-1.88.93-3.33s-.31-2.55-.93-3.33c-.62-.78-1.49-1.16-2.61-1.16s-1.95.41-2.59,1.22c-.62.81-.93,1.94-.93,3.38ZM86.63.43l-6.27,9.36,6.64,9.9h-4.19l-2.08-3.11c-.94-1.42-1.79-2.73-2.53-3.92-.75,1.19-1.59,2.5-2.53,3.92l-2.11,3.11h-4.08l6.69-9.82L69.88.43h4.16l1.89,2.87c.48.7,1.26,1.94,2.35,3.71.36-.56.72-1.13,1.09-1.7.37-.6.66-1.05.85-1.35.2-.31.34-.52.43-.65l1.92-2.87h4.06Z"/><path class="cls-1" d="M8.13,20.12c-2.58,0-4.58-.59-6-1.76C.73,17.19.02,15.51,0,13.33h3.55c.02,1.37.42,2.35,1.2,2.95.8.6,1.96.89,3.49.89,1.24,0,2.2-.23,2.85-.7.66-.49.99-1.18.99-2.08,0-.76-.28-1.33-.85-1.73-.55-.4-1.56-.75-3.04-1.05l-1.6-.32C2.51,10.5.48,8.55.48,5.44c0-1.66.62-2.97,1.87-3.95,1.24-.99,2.96-1.49,5.17-1.49,2.51,0,4.4.54,5.68,1.62,1.3,1.08,1.98,2.6,2.05,4.54h-3.49c-.07-1.1-.44-1.91-1.09-2.43-.64-.52-1.67-.78-3.09-.78-1.1,0-1.95.21-2.53.62-.59.41-.88,1-.88,1.76s.27,1.37.8,1.78c.55.41,1.52.77,2.91,1.05l1.65.32c2.22.45,3.82,1.13,4.8,2.03,1,.88,1.49,2.11,1.49,3.68,0,1.88-.68,3.34-2.03,4.38-1.35,1.03-3.23,1.54-5.65,1.54h0Z"/><path class="cls-1" d="M23.7,10.13c1.09,0,1.97-.89,1.97-2s-.88-2-1.97-2-1.97.89-1.97,2,.88,2,1.97,2Z"/><path class="cls-1" d="M31.59,16.34c-.61-1.86-2.63-2.46-3.9-2.65.22-.17.43-.34.63-.53,1.67-1.51,2.62-3.37,2.62-5.12s-.91-3.63-2.51-5.12c-1.55-1.45-3.52-2.32-5.27-2.32-3.44,0-6.45,3.48-6.45,7.45,0,2.56,1.09,4.82,2.74,6.16-1.1.53-1.98,1.42-2.22,2.73-.26,1.4-.14,2.51-.06,3.24.02.21.04.38.04.51,0,.54.43.98.97.98s.97-.44.97-.98c0-.19-.02-.44-.06-.73-.07-.65-.17-1.54.04-2.66.18-.97,1.16-1.44,2.05-1.62v8.35c0,.44.29.8.69.93.09.03.19.06.29.06.54,0,.97-.44.97-.98v-8.32c.98.19,1.86.6,2.33,1.78.05.12.1.41.12.89.02.45,0,.96-.02,1.49-.03.52-.07,1.03-.1,1.45-.03.39-.07.78-.07.99,0,.54.43.98.97.98s.97-.44.97-.98c0-.1.02-.37.06-.82.04-.42.08-.96.11-1.51.03-.55.05-1.14.02-1.68-.02-.51-.08-1.08-.26-1.53-.18-.46-.41-.85-.66-1.18h.26c1.15.08,2.59.49,2.89,1.4.33.99.31,1.76.3,2.27v.25c0,.54.43.98.97.98s.97-.44.97-.98v-.21c.02-.57.04-1.63-.39-2.94v-.03ZM23.16,4.01c.9,0,2.07.55,2.98,1.41,1.05.99,1.43,2,1.43,2.61,0,.56-.39,1.57-1.49,2.57-.98.88-2.21,1.45-3.14,1.45-1.35,0-2.85-1.65-2.85-4.02s1.65-4.02,3.07-4.02Z"/></g></g></g></svg>