<?xml version="1.0" encoding="UTF-8"?><svg id="_Слой_2" xmlns="http://www.w3.org/2000/svg" width="106.01" height="29" viewBox="0 0 106.01 29"><defs><style>.cls-1{fill:#fff;stroke-width:0px;}</style></defs><g id="_Слой_2-2"><g id="_Слой_1-2"><g id="logo_replo_cehpbe"><path class="cls-1" d="M.01,22.75h8.9v-8.25c-1.17,0-2.33.21-3.41.63-1.08.41-2.06,1.02-2.89,1.79C.95,18.46.01,20.56.01,22.75ZM.01,14.5V6.25h8.9c0,2.19-.94,4.28-2.61,5.83-.82.77-1.81,1.38-2.89,1.79s-2.24.63-3.41.62h.01Z"/><path class="cls-1" d="M8.91,14.5h8.9V6.25c-1.17,0-2.33.21-3.41.63-1.08.41-2.06,1.02-2.89,1.79-1.67,1.55-2.61,3.64-2.61,5.83h.01ZM39.03,6.08v3.68h-2.82c-3.21,0-5.14,1.47-5.14,4.6v8.37h-4.35V6.23h4.18v2.95c.41-.98,1.15-1.82,2.1-2.39s2.08-.86,3.21-.81c.42.03,2.44.03,2.82.09h0ZM57.47,15.76h-13.32c.32,2.94,2.11,4.25,4.63,4.25.86.06,1.72-.14,2.45-.57s1.3-1.06,1.61-1.8h4.18c-.9,3.35-4,5.5-8.28,5.5-5.24,0-8.87-3.35-8.87-8.63s3.52-8.63,8.8-8.63,8.8,3.68,8.8,8.92v.95h0ZM44.19,12.94h8.94c-.34-2.33-1.9-3.93-4.52-3.93-2.31,0-4,1.21-4.42,3.93ZM78.11,14.51c0,5.24-3.07,8.63-7.97,8.63-1.07.05-2.14-.16-3.11-.6s-1.8-1.1-2.41-1.91v8.37h-4.35V6.26h4.18v2.37c.61-.88,1.45-1.6,2.45-2.08s2.12-.72,3.25-.67c4.9,0,7.97,3.39,7.97,8.63h0ZM73.69,14.38c0-3.48-1.75-5.17-4.58-5.17s-4.59,1.82-4.59,5.3,1.75,5.31,4.59,5.31,4.58-1.95,4.58-5.43h0ZM80.84,0h4.33v22.75h-4.35l.02-22.75ZM87.88,14.51c0-5.24,3.66-8.63,9.09-8.63s9.04,3.39,9.04,8.63-3.62,8.63-9.04,8.63-9.09-3.35-9.09-8.63ZM101.59,14.51c0-3.48-1.81-5.3-4.62-5.3s-4.63,1.82-4.63,5.3,1.81,5.31,4.63,5.31,4.65-1.83,4.65-5.31h-.03Z"/></g></g></g></svg>