<?xml version="1.0" encoding="UTF-8"?><svg id="_Слой_2" xmlns="http://www.w3.org/2000/svg" width="91" height="91.08" viewBox="0 0 91 91.08"><defs><style>.cls-1{fill:#dedede;}.cls-1,.cls-2{stroke-width:0px;}.cls-2{fill:#d46868;}</style></defs><g id="_Слой_1-2"><circle class="cls-2" cx="79.14" cy="79.19" r="11.86"/><path class="cls-1" d="M67.5,90.97H28.88c-1.06,0-1.3-1.15-.61-1.75l25.29-21.4c.38-.4,1.14-.4,1.52-.4h12.41c-3.81,2.54-6.33,6.87-6.33,11.78s2.52,9.24,6.33,11.78Z"/><path class="cls-1" d="M.1,0h34.25c18.62,0,30.24,10.57,30.24,27.61,0,11.46-9.85,21.96-18.95,26.09l4.89,6.98c.24.34.16.8-.17,1.05l-12.01,9c-.47.35-1.14.25-1.49-.22l-11.66-15.94-5.06-.04-.1,36.55H0L.1,0ZM30.02,38.74c8.99,0,13.8-3.44,13.8-11.13s-4.82-11.46-13.8-11.46h-9.88v22.59h9.88Z"/></g></svg>